# xmcd
#
# Track frame offsets: 
#        150
#        18866
#        29383
#        43308
#        58393
#        76834
#        95348
#        111506
#        125465
#        137757
#        155185
#        176742
#
# Disc length: 2521 seconds
#
# Revision: 0
# Processed by: cddbd v1.5.2PL0 Copyright (c) Steve Scherf et al.
# Submitted via: ExactAudioCopy v0.99pb5
#
DISCID=a809d70c
DTITLE=Rita Engedalen - Chapels and Bars
DYEAR=2011
DGENRE=Blues
TTITLE0=Chapels and Bars
TTITLE1=Lord I Feel Better
TTITLE2=My Hill Country Blues
TTITLE3=He Walked Away
TTITLE4=Sara's Kitchen
TTITLE5=Last Talk
TTITLE6=House of Shame
TTITLE7=She Rocked the Cradle of the Blues
TTITLE8=Don't Mess With My Man
TTITLE9=Ball and Chain
TTITLE10=Holy Land
TTITLE11=Epilogue - Bless the Hours
EXTD=
EXTT0=
EXTT1=
EXTT2=
EXTT3=
EXTT4=
EXTT5=
EXTT6=
EXTT7=
EXTT8=
EXTT9=
EXTT10=
EXTT11=
PLAYORDER=
